{
	"patcher" : 	{
		"fileversion" : 1,
		"rect" : [ 226.0, 153.0, 1140.0, 557.0 ],
		"bglocked" : 0,
		"defrect" : [ 226.0, 153.0, 1140.0, 557.0 ],
		"openrect" : [ 0.0, 0.0, 0.0, 0.0 ],
		"openinpresentation" : 1,
		"default_fontsize" : 12.0,
		"default_fontface" : 0,
		"default_fontname" : "Arial",
		"gridonopen" : 0,
		"gridsize" : [ 15.0, 15.0 ],
		"gridsnaponopen" : 0,
		"toolbarvisible" : 1,
		"boxanimatetime" : 200,
		"imprint" : 0,
		"enablehscroll" : 1,
		"enablevscroll" : 1,
		"devicewidth" : 0.0,
		"boxes" : [ 			{
				"box" : 				{
					"maxclass" : "newobj",
					"text" : "sprintf \"set 8 /%i\"",
					"patching_rect" : [ 966.714294, 456.0, 101.0, 20.0 ],
					"id" : "obj-62",
					"fontname" : "Arial",
					"numinlets" : 1,
					"numoutlets" : 1,
					"fontsize" : 12.0,
					"outlettype" : [ "" ]
				}

			}
, 			{
				"box" : 				{
					"maxclass" : "newobj",
					"text" : "sprintf \"set 6 /%i\"",
					"patching_rect" : [ 738.714294, 456.0, 101.0, 20.0 ],
					"id" : "obj-63",
					"fontname" : "Arial",
					"numinlets" : 1,
					"numoutlets" : 1,
					"fontsize" : 12.0,
					"outlettype" : [ "" ]
				}

			}
, 			{
				"box" : 				{
					"maxclass" : "newobj",
					"text" : "sprintf \"set 4 /%i\"",
					"patching_rect" : [ 510.714294, 456.0, 101.0, 20.0 ],
					"id" : "obj-64",
					"fontname" : "Arial",
					"numinlets" : 1,
					"numoutlets" : 1,
					"fontsize" : 12.0,
					"outlettype" : [ "" ]
				}

			}
, 			{
				"box" : 				{
					"maxclass" : "newobj",
					"text" : "sprintf \"set 2 /%i\"",
					"patching_rect" : [ 282.714294, 456.0, 101.0, 20.0 ],
					"id" : "obj-65",
					"fontname" : "Arial",
					"numinlets" : 1,
					"numoutlets" : 1,
					"fontsize" : 12.0,
					"outlettype" : [ "" ]
				}

			}
, 			{
				"box" : 				{
					"maxclass" : "newobj",
					"text" : "sprintf \"set 7 /%i\"",
					"patching_rect" : [ 852.714294, 456.0, 101.0, 20.0 ],
					"id" : "obj-60",
					"fontname" : "Arial",
					"numinlets" : 1,
					"numoutlets" : 1,
					"fontsize" : 12.0,
					"outlettype" : [ "" ]
				}

			}
, 			{
				"box" : 				{
					"maxclass" : "newobj",
					"text" : "sprintf \"set 5 /%i\"",
					"patching_rect" : [ 624.714294, 456.0, 101.0, 20.0 ],
					"id" : "obj-59",
					"fontname" : "Arial",
					"numinlets" : 1,
					"numoutlets" : 1,
					"fontsize" : 12.0,
					"outlettype" : [ "" ]
				}

			}
, 			{
				"box" : 				{
					"maxclass" : "newobj",
					"text" : "sprintf \"set 3 /%i\"",
					"patching_rect" : [ 396.714294, 456.0, 101.0, 20.0 ],
					"id" : "obj-58",
					"fontname" : "Arial",
					"numinlets" : 1,
					"numoutlets" : 1,
					"fontsize" : 12.0,
					"outlettype" : [ "" ]
				}

			}
, 			{
				"box" : 				{
					"maxclass" : "flonum",
					"patching_rect" : [ 652.0, 381.0, 50.0, 20.0 ],
					"id" : "obj-56",
					"fontname" : "Arial",
					"presentation" : 1,
					"numinlets" : 1,
					"numoutlets" : 2,
					"fontsize" : 12.0,
					"outlettype" : [ "float", "bang" ],
					"presentation_rect" : [ 682.0, 45.0, 50.0, 20.0 ]
				}

			}
, 			{
				"box" : 				{
					"maxclass" : "flonum",
					"patching_rect" : [ 585.0, 381.0, 50.0, 20.0 ],
					"id" : "obj-55",
					"fontname" : "Arial",
					"presentation" : 1,
					"numinlets" : 1,
					"numoutlets" : 2,
					"fontsize" : 12.0,
					"outlettype" : [ "float", "bang" ],
					"presentation_rect" : [ 615.0, 45.0, 50.0, 20.0 ]
				}

			}
, 			{
				"box" : 				{
					"maxclass" : "flonum",
					"patching_rect" : [ 518.0, 381.0, 50.0, 20.0 ],
					"id" : "obj-54",
					"fontname" : "Arial",
					"presentation" : 1,
					"numinlets" : 1,
					"numoutlets" : 2,
					"fontsize" : 12.0,
					"outlettype" : [ "float", "bang" ],
					"presentation_rect" : [ 548.0, 45.0, 50.0, 20.0 ]
				}

			}
, 			{
				"box" : 				{
					"maxclass" : "flonum",
					"patching_rect" : [ 451.0, 381.0, 50.0, 20.0 ],
					"id" : "obj-53",
					"fontname" : "Arial",
					"presentation" : 1,
					"numinlets" : 1,
					"numoutlets" : 2,
					"fontsize" : 12.0,
					"outlettype" : [ "float", "bang" ],
					"presentation_rect" : [ 481.0, 45.0, 50.0, 20.0 ]
				}

			}
, 			{
				"box" : 				{
					"maxclass" : "flonum",
					"patching_rect" : [ 384.0, 381.0, 50.0, 20.0 ],
					"id" : "obj-51",
					"fontname" : "Arial",
					"presentation" : 1,
					"numinlets" : 1,
					"numoutlets" : 2,
					"fontsize" : 12.0,
					"outlettype" : [ "float", "bang" ],
					"presentation_rect" : [ 414.0, 45.0, 50.0, 20.0 ]
				}

			}
, 			{
				"box" : 				{
					"maxclass" : "flonum",
					"patching_rect" : [ 317.0, 381.0, 50.0, 20.0 ],
					"id" : "obj-50",
					"fontname" : "Arial",
					"presentation" : 1,
					"numinlets" : 1,
					"numoutlets" : 2,
					"fontsize" : 12.0,
					"outlettype" : [ "float", "bang" ],
					"presentation_rect" : [ 347.0, 45.0, 50.0, 20.0 ]
				}

			}
, 			{
				"box" : 				{
					"maxclass" : "flonum",
					"patching_rect" : [ 250.0, 381.0, 50.0, 20.0 ],
					"id" : "obj-49",
					"fontname" : "Arial",
					"presentation" : 1,
					"numinlets" : 1,
					"numoutlets" : 2,
					"fontsize" : 12.0,
					"outlettype" : [ "float", "bang" ],
					"presentation_rect" : [ 280.0, 45.0, 50.0, 20.0 ]
				}

			}
, 			{
				"box" : 				{
					"maxclass" : "flonum",
					"patching_rect" : [ 183.0, 381.0, 50.0, 20.0 ],
					"id" : "obj-48",
					"fontname" : "Arial",
					"presentation" : 1,
					"numinlets" : 1,
					"numoutlets" : 2,
					"fontsize" : 12.0,
					"outlettype" : [ "float", "bang" ],
					"presentation_rect" : [ 213.0, 45.0, 50.0, 20.0 ]
				}

			}
, 			{
				"box" : 				{
					"maxclass" : "newobj",
					"text" : "sprintf \"set 1 /%i\"",
					"patching_rect" : [ 168.0, 456.0, 101.0, 20.0 ],
					"id" : "obj-17",
					"fontname" : "Arial",
					"numinlets" : 1,
					"numoutlets" : 1,
					"fontsize" : 12.0,
					"outlettype" : [ "" ]
				}

			}
, 			{
				"box" : 				{
					"maxclass" : "message",
					"patching_rect" : [ 775.0, 414.0, 50.0, 18.0 ],
					"id" : "obj-43",
					"fontname" : "Arial",
					"presentation" : 1,
					"numinlets" : 2,
					"numoutlets" : 1,
					"fontsize" : 12.0,
					"outlettype" : [ "" ],
					"presentation_rect" : [ 769.0, 39.0, 50.0, 18.0 ]
				}

			}
, 			{
				"box" : 				{
					"maxclass" : "comment",
					"text" : "incoming midi cc",
					"patching_rect" : [ 721.0, 382.0, 159.0, 20.0 ],
					"id" : "obj-39",
					"fontname" : "Arial",
					"presentation" : 1,
					"numinlets" : 1,
					"numoutlets" : 0,
					"fontface" : 1,
					"fontsize" : 12.0,
					"presentation_rect" : [ 753.0, 17.0, 175.0, 20.0 ]
				}

			}
, 			{
				"box" : 				{
					"maxclass" : "number",
					"patching_rect" : [ 652.0, 414.0, 50.0, 20.0 ],
					"id" : "obj-20",
					"fontname" : "Arial",
					"presentation" : 1,
					"numinlets" : 1,
					"numoutlets" : 2,
					"fontsize" : 12.0,
					"bgcolor" : [ 1.0, 1.0, 0.0, 0.2 ],
					"outlettype" : [ "int", "bang" ],
					"presentation_rect" : [ 682.0, 73.0, 50.0, 20.0 ]
				}

			}
, 			{
				"box" : 				{
					"maxclass" : "number",
					"patching_rect" : [ 585.0, 414.0, 50.0, 20.0 ],
					"id" : "obj-21",
					"fontname" : "Arial",
					"presentation" : 1,
					"numinlets" : 1,
					"numoutlets" : 2,
					"fontsize" : 12.0,
					"bgcolor" : [ 1.0, 1.0, 0.0, 0.2 ],
					"outlettype" : [ "int", "bang" ],
					"presentation_rect" : [ 615.0, 73.0, 50.0, 20.0 ]
				}

			}
, 			{
				"box" : 				{
					"maxclass" : "number",
					"patching_rect" : [ 518.0, 414.0, 50.0, 20.0 ],
					"id" : "obj-22",
					"fontname" : "Arial",
					"presentation" : 1,
					"numinlets" : 1,
					"numoutlets" : 2,
					"fontsize" : 12.0,
					"bgcolor" : [ 1.0, 1.0, 0.0, 0.2 ],
					"outlettype" : [ "int", "bang" ],
					"presentation_rect" : [ 548.0, 73.0, 50.0, 20.0 ]
				}

			}
, 			{
				"box" : 				{
					"maxclass" : "number",
					"patching_rect" : [ 451.0, 414.0, 50.0, 20.0 ],
					"id" : "obj-24",
					"fontname" : "Arial",
					"presentation" : 1,
					"numinlets" : 1,
					"numoutlets" : 2,
					"fontsize" : 12.0,
					"bgcolor" : [ 1.0, 1.0, 0.0, 0.2 ],
					"outlettype" : [ "int", "bang" ],
					"presentation_rect" : [ 481.0, 73.0, 50.0, 20.0 ]
				}

			}
, 			{
				"box" : 				{
					"maxclass" : "number",
					"patching_rect" : [ 384.0, 414.0, 50.0, 20.0 ],
					"id" : "obj-25",
					"fontname" : "Arial",
					"presentation" : 1,
					"numinlets" : 1,
					"numoutlets" : 2,
					"fontsize" : 12.0,
					"bgcolor" : [ 1.0, 1.0, 0.0, 0.2 ],
					"outlettype" : [ "int", "bang" ],
					"presentation_rect" : [ 414.0, 73.0, 50.0, 20.0 ]
				}

			}
, 			{
				"box" : 				{
					"maxclass" : "number",
					"patching_rect" : [ 317.0, 414.0, 50.0, 20.0 ],
					"id" : "obj-26",
					"fontname" : "Arial",
					"presentation" : 1,
					"numinlets" : 1,
					"numoutlets" : 2,
					"fontsize" : 12.0,
					"bgcolor" : [ 1.0, 1.0, 0.0, 0.2 ],
					"outlettype" : [ "int", "bang" ],
					"presentation_rect" : [ 347.0, 73.0, 50.0, 20.0 ]
				}

			}
, 			{
				"box" : 				{
					"maxclass" : "number",
					"patching_rect" : [ 250.0, 414.0, 50.0, 20.0 ],
					"id" : "obj-27",
					"fontname" : "Arial",
					"presentation" : 1,
					"numinlets" : 1,
					"numoutlets" : 2,
					"fontsize" : 12.0,
					"bgcolor" : [ 1.0, 1.0, 0.0, 0.2 ],
					"outlettype" : [ "int", "bang" ],
					"presentation_rect" : [ 280.0, 73.0, 50.0, 20.0 ]
				}

			}
, 			{
				"box" : 				{
					"maxclass" : "number",
					"patching_rect" : [ 183.125, 413.0, 50.0, 20.0 ],
					"id" : "obj-29",
					"fontname" : "Arial",
					"presentation" : 1,
					"numinlets" : 1,
					"numoutlets" : 2,
					"fontsize" : 12.0,
					"bgcolor" : [ 1.0, 1.0, 0.0, 0.2 ],
					"outlettype" : [ "int", "bang" ],
					"presentation_rect" : [ 213.125, 73.0, 50.0, 20.0 ]
				}

			}
, 			{
				"box" : 				{
					"maxclass" : "comment",
					"text" : "cc number",
					"patching_rect" : [ 17.0, 413.0, 159.0, 20.0 ],
					"id" : "obj-19",
					"fontname" : "Arial",
					"presentation" : 1,
					"numinlets" : 1,
					"numoutlets" : 0,
					"fontface" : 1,
					"fontsize" : 12.0,
					"presentation_rect" : [ 17.0, 72.0, 159.0, 20.0 ]
				}

			}
, 			{
				"box" : 				{
					"maxclass" : "comment",
					"text" : "scaled control change 0. - 1.",
					"linecount" : 2,
					"patching_rect" : [ 17.0, 388.0, 159.0, 34.0 ],
					"id" : "obj-18",
					"fontname" : "Arial",
					"presentation" : 1,
					"numinlets" : 1,
					"numoutlets" : 0,
					"fontface" : 1,
					"fontsize" : 12.0,
					"presentation_rect" : [ 17.0, 47.0, 175.0, 20.0 ]
				}

			}
, 			{
				"box" : 				{
					"maxclass" : "newobj",
					"text" : "p fun time happy hour",
					"patching_rect" : [ 237.142853, 325.0, 127.0, 20.0 ],
					"id" : "obj-13",
					"fontname" : "Arial",
					"numinlets" : 2,
					"numoutlets" : 8,
					"fontsize" : 12.0,
					"outlettype" : [ "", "", "", "", "", "", "", "" ],
					"patcher" : 					{
						"fileversion" : 1,
						"rect" : [ 898.0, 78.0, 510.0, 255.0 ],
						"bglocked" : 0,
						"defrect" : [ 898.0, 78.0, 510.0, 255.0 ],
						"openrect" : [ 0.0, 0.0, 0.0, 0.0 ],
						"openinpresentation" : 0,
						"default_fontsize" : 12.0,
						"default_fontface" : 0,
						"default_fontname" : "Arial",
						"gridonopen" : 0,
						"gridsize" : [ 15.0, 15.0 ],
						"gridsnaponopen" : 0,
						"toolbarvisible" : 1,
						"boxanimatetime" : 200,
						"imprint" : 0,
						"enablehscroll" : 1,
						"enablevscroll" : 1,
						"devicewidth" : 0.0,
						"visible" : 1,
						"boxes" : [ 							{
								"box" : 								{
									"maxclass" : "inlet",
									"patching_rect" : [ 83.0, 12.0, 25.0, 25.0 ],
									"id" : "obj-1",
									"numinlets" : 0,
									"numoutlets" : 1,
									"outlettype" : [ "" ],
									"comment" : ""
								}

							}
, 							{
								"box" : 								{
									"maxclass" : "newobj",
									"text" : "sprintf /%i %i",
									"patching_rect" : [ 48.0, 64.0, 80.0, 20.0 ],
									"id" : "obj-61",
									"fontname" : "Arial",
									"numinlets" : 2,
									"numoutlets" : 1,
									"fontsize" : 12.0,
									"outlettype" : [ "" ]
								}

							}
, 							{
								"box" : 								{
									"maxclass" : "inlet",
									"patching_rect" : [ 48.0, 15.0, 25.0, 25.0 ],
									"id" : "obj-60",
									"numinlets" : 0,
									"numoutlets" : 1,
									"outlettype" : [ "" ],
									"comment" : ""
								}

							}
, 							{
								"box" : 								{
									"maxclass" : "newobj",
									"text" : "OSC-route /0 /1 /2 /3 /4 /5 /6 /7",
									"patching_rect" : [ 48.0, 105.0, 175.0, 20.0 ],
									"id" : "obj-58",
									"fontname" : "Arial",
									"numinlets" : 1,
									"numoutlets" : 9,
									"fontsize" : 12.0,
									"outlettype" : [ "", "", "", "", "", "", "", "", "" ]
								}

							}
, 							{
								"box" : 								{
									"maxclass" : "message",
									"text" : "set $1",
									"patching_rect" : [ 654.0, 174.0, 43.0, 18.0 ],
									"id" : "obj-46",
									"fontname" : "Arial",
									"numinlets" : 2,
									"numoutlets" : 1,
									"fontsize" : 12.0,
									"outlettype" : [ "" ]
								}

							}
, 							{
								"box" : 								{
									"maxclass" : "newobj",
									"text" : "p scaler",
									"patching_rect" : [ 48.0, 146.0, 113.0, 20.0 ],
									"id" : "obj-59",
									"fontname" : "Arial",
									"numinlets" : 8,
									"numoutlets" : 8,
									"fontsize" : 12.0,
									"outlettype" : [ "", "", "", "", "", "", "", "" ],
									"patcher" : 									{
										"fileversion" : 1,
										"rect" : [ 50.0, 94.0, 640.0, 480.0 ],
										"bglocked" : 0,
										"defrect" : [ 50.0, 94.0, 640.0, 480.0 ],
										"openrect" : [ 0.0, 0.0, 0.0, 0.0 ],
										"openinpresentation" : 0,
										"default_fontsize" : 12.0,
										"default_fontface" : 0,
										"default_fontname" : "Arial",
										"gridonopen" : 0,
										"gridsize" : [ 15.0, 15.0 ],
										"gridsnaponopen" : 0,
										"toolbarvisible" : 1,
										"boxanimatetime" : 200,
										"imprint" : 0,
										"enablehscroll" : 1,
										"enablevscroll" : 1,
										"devicewidth" : 0.0,
										"boxes" : [ 											{
												"box" : 												{
													"maxclass" : "message",
													"text" : "0.929134",
													"linecount" : 2,
													"patching_rect" : [ 84.0, 147.0, 50.0, 32.0 ],
													"id" : "obj-4",
													"fontname" : "Arial",
													"numinlets" : 2,
													"numoutlets" : 1,
													"fontsize" : 12.0,
													"outlettype" : [ "" ]
												}

											}
, 											{
												"box" : 												{
													"maxclass" : "message",
													"text" : "118",
													"patching_rect" : [ 129.0, 92.0, 50.0, 18.0 ],
													"id" : "obj-2",
													"fontname" : "Arial",
													"numinlets" : 2,
													"numoutlets" : 1,
													"fontsize" : 12.0,
													"outlettype" : [ "" ]
												}

											}
, 											{
												"box" : 												{
													"maxclass" : "newobj",
													"text" : "scale 0 127 0. 1.",
													"patching_rect" : [ 50.0, 100.0, 99.0, 20.0 ],
													"id" : "obj-11",
													"fontname" : "Arial",
													"numinlets" : 6,
													"numoutlets" : 1,
													"fontsize" : 12.0,
													"outlettype" : [ "" ]
												}

											}
, 											{
												"box" : 												{
													"maxclass" : "inlet",
													"patching_rect" : [ 50.0, 40.0, 25.0, 25.0 ],
													"id" : "obj-42",
													"numinlets" : 0,
													"numoutlets" : 1,
													"outlettype" : [ "" ],
													"comment" : ""
												}

											}
, 											{
												"box" : 												{
													"maxclass" : "inlet",
													"patching_rect" : [ 63.857147, 40.0, 25.0, 25.0 ],
													"id" : "obj-43",
													"numinlets" : 0,
													"numoutlets" : 1,
													"outlettype" : [ "" ],
													"comment" : ""
												}

											}
, 											{
												"box" : 												{
													"maxclass" : "inlet",
													"patching_rect" : [ 77.857147, 40.0, 25.0, 25.0 ],
													"id" : "obj-44",
													"numinlets" : 0,
													"numoutlets" : 1,
													"outlettype" : [ "" ],
													"comment" : ""
												}

											}
, 											{
												"box" : 												{
													"maxclass" : "inlet",
													"patching_rect" : [ 91.857147, 40.0, 25.0, 25.0 ],
													"id" : "obj-45",
													"numinlets" : 0,
													"numoutlets" : 1,
													"outlettype" : [ "" ],
													"comment" : ""
												}

											}
, 											{
												"box" : 												{
													"maxclass" : "inlet",
													"patching_rect" : [ 105.857147, 40.0, 25.0, 25.0 ],
													"id" : "obj-46",
													"numinlets" : 0,
													"numoutlets" : 1,
													"outlettype" : [ "" ],
													"comment" : ""
												}

											}
, 											{
												"box" : 												{
													"maxclass" : "inlet",
													"patching_rect" : [ 119.857147, 40.0, 25.0, 25.0 ],
													"id" : "obj-47",
													"numinlets" : 0,
													"numoutlets" : 1,
													"outlettype" : [ "" ],
													"comment" : ""
												}

											}
, 											{
												"box" : 												{
													"maxclass" : "inlet",
													"patching_rect" : [ 133.857147, 40.0, 25.0, 25.0 ],
													"id" : "obj-48",
													"numinlets" : 0,
													"numoutlets" : 1,
													"outlettype" : [ "" ],
													"comment" : ""
												}

											}
, 											{
												"box" : 												{
													"maxclass" : "inlet",
													"patching_rect" : [ 147.857147, 40.0, 25.0, 25.0 ],
													"id" : "obj-49",
													"numinlets" : 0,
													"numoutlets" : 1,
													"outlettype" : [ "" ],
													"comment" : ""
												}

											}
, 											{
												"box" : 												{
													"maxclass" : "outlet",
													"patching_rect" : [ 50.0, 180.0, 25.0, 25.0 ],
													"id" : "obj-50",
													"numinlets" : 1,
													"numoutlets" : 0,
													"comment" : ""
												}

											}
, 											{
												"box" : 												{
													"maxclass" : "outlet",
													"patching_rect" : [ 63.857147, 180.0, 25.0, 25.0 ],
													"id" : "obj-51",
													"numinlets" : 1,
													"numoutlets" : 0,
													"comment" : ""
												}

											}
, 											{
												"box" : 												{
													"maxclass" : "outlet",
													"patching_rect" : [ 77.857147, 180.0, 25.0, 25.0 ],
													"id" : "obj-53",
													"numinlets" : 1,
													"numoutlets" : 0,
													"comment" : ""
												}

											}
, 											{
												"box" : 												{
													"maxclass" : "outlet",
													"patching_rect" : [ 91.857147, 180.0, 25.0, 25.0 ],
													"id" : "obj-54",
													"numinlets" : 1,
													"numoutlets" : 0,
													"comment" : ""
												}

											}
, 											{
												"box" : 												{
													"maxclass" : "outlet",
													"patching_rect" : [ 105.857147, 180.0, 25.0, 25.0 ],
													"id" : "obj-55",
													"numinlets" : 1,
													"numoutlets" : 0,
													"comment" : ""
												}

											}
, 											{
												"box" : 												{
													"maxclass" : "outlet",
													"patching_rect" : [ 119.857147, 180.0, 25.0, 25.0 ],
													"id" : "obj-56",
													"numinlets" : 1,
													"numoutlets" : 0,
													"comment" : ""
												}

											}
, 											{
												"box" : 												{
													"maxclass" : "outlet",
													"patching_rect" : [ 133.857147, 180.0, 25.0, 25.0 ],
													"id" : "obj-57",
													"numinlets" : 1,
													"numoutlets" : 0,
													"comment" : ""
												}

											}
, 											{
												"box" : 												{
													"maxclass" : "outlet",
													"patching_rect" : [ 147.857147, 180.0, 25.0, 25.0 ],
													"id" : "obj-58",
													"numinlets" : 1,
													"numoutlets" : 0,
													"comment" : ""
												}

											}
 ],
										"lines" : [ 											{
												"patchline" : 												{
													"source" : [ "obj-11", 0 ],
													"destination" : [ "obj-4", 1 ],
													"hidden" : 0,
													"midpoints" : [  ]
												}

											}
, 											{
												"patchline" : 												{
													"source" : [ "obj-42", 0 ],
													"destination" : [ "obj-2", 1 ],
													"hidden" : 0,
													"midpoints" : [  ]
												}

											}
, 											{
												"patchline" : 												{
													"source" : [ "obj-42", 0 ],
													"destination" : [ "obj-11", 0 ],
													"hidden" : 0,
													"midpoints" : [  ]
												}

											}
, 											{
												"patchline" : 												{
													"source" : [ "obj-11", 0 ],
													"destination" : [ "obj-50", 0 ],
													"hidden" : 0,
													"midpoints" : [  ]
												}

											}
 ]
									}
,
									"saved_object_attributes" : 									{
										"fontname" : "Arial",
										"default_fontface" : 0,
										"globalpatchername" : "",
										"fontface" : 0,
										"default_fontname" : "Arial",
										"fontsize" : 12.0,
										"default_fontsize" : 12.0
									}

								}

							}
, 							{
								"box" : 								{
									"maxclass" : "outlet",
									"patching_rect" : [ 54.0, 207.0, 25.0, 25.0 ],
									"id" : "obj-2",
									"numinlets" : 1,
									"numoutlets" : 0,
									"comment" : ""
								}

							}
, 							{
								"box" : 								{
									"maxclass" : "outlet",
									"patching_rect" : [ 111.428574, 207.0, 25.0, 25.0 ],
									"id" : "obj-5",
									"numinlets" : 1,
									"numoutlets" : 0,
									"comment" : ""
								}

							}
, 							{
								"box" : 								{
									"maxclass" : "outlet",
									"patching_rect" : [ 168.428574, 207.0, 25.0, 25.0 ],
									"id" : "obj-6",
									"numinlets" : 1,
									"numoutlets" : 0,
									"comment" : ""
								}

							}
, 							{
								"box" : 								{
									"maxclass" : "outlet",
									"patching_rect" : [ 225.428574, 207.0, 25.0, 25.0 ],
									"id" : "obj-8",
									"numinlets" : 1,
									"numoutlets" : 0,
									"comment" : ""
								}

							}
, 							{
								"box" : 								{
									"maxclass" : "outlet",
									"patching_rect" : [ 282.428558, 207.0, 25.0, 25.0 ],
									"id" : "obj-9",
									"numinlets" : 1,
									"numoutlets" : 0,
									"comment" : ""
								}

							}
, 							{
								"box" : 								{
									"maxclass" : "outlet",
									"patching_rect" : [ 339.428558, 207.0, 25.0, 25.0 ],
									"id" : "obj-10",
									"numinlets" : 1,
									"numoutlets" : 0,
									"comment" : ""
								}

							}
, 							{
								"box" : 								{
									"maxclass" : "outlet",
									"patching_rect" : [ 396.428558, 207.0, 25.0, 25.0 ],
									"id" : "obj-11",
									"numinlets" : 1,
									"numoutlets" : 0,
									"comment" : ""
								}

							}
, 							{
								"box" : 								{
									"maxclass" : "outlet",
									"patching_rect" : [ 453.428558, 207.0, 25.0, 25.0 ],
									"id" : "obj-12",
									"numinlets" : 1,
									"numoutlets" : 0,
									"comment" : ""
								}

							}
 ],
						"lines" : [ 							{
								"patchline" : 								{
									"source" : [ "obj-1", 0 ],
									"destination" : [ "obj-58", 0 ],
									"hidden" : 0,
									"midpoints" : [ 92.5, 51.0, 33.0, 51.0, 33.0, 102.0, 57.5, 102.0 ]
								}

							}
, 							{
								"patchline" : 								{
									"source" : [ "obj-59", 7 ],
									"destination" : [ "obj-12", 0 ],
									"hidden" : 0,
									"midpoints" : [  ]
								}

							}
, 							{
								"patchline" : 								{
									"source" : [ "obj-59", 6 ],
									"destination" : [ "obj-11", 0 ],
									"hidden" : 0,
									"midpoints" : [  ]
								}

							}
, 							{
								"patchline" : 								{
									"source" : [ "obj-59", 5 ],
									"destination" : [ "obj-10", 0 ],
									"hidden" : 0,
									"midpoints" : [  ]
								}

							}
, 							{
								"patchline" : 								{
									"source" : [ "obj-59", 4 ],
									"destination" : [ "obj-9", 0 ],
									"hidden" : 0,
									"midpoints" : [  ]
								}

							}
, 							{
								"patchline" : 								{
									"source" : [ "obj-59", 3 ],
									"destination" : [ "obj-8", 0 ],
									"hidden" : 0,
									"midpoints" : [  ]
								}

							}
, 							{
								"patchline" : 								{
									"source" : [ "obj-59", 2 ],
									"destination" : [ "obj-6", 0 ],
									"hidden" : 0,
									"midpoints" : [  ]
								}

							}
, 							{
								"patchline" : 								{
									"source" : [ "obj-59", 1 ],
									"destination" : [ "obj-5", 0 ],
									"hidden" : 0,
									"midpoints" : [  ]
								}

							}
, 							{
								"patchline" : 								{
									"source" : [ "obj-59", 0 ],
									"destination" : [ "obj-2", 0 ],
									"hidden" : 0,
									"midpoints" : [  ]
								}

							}
, 							{
								"patchline" : 								{
									"source" : [ "obj-60", 0 ],
									"destination" : [ "obj-61", 0 ],
									"hidden" : 0,
									"midpoints" : [  ]
								}

							}
, 							{
								"patchline" : 								{
									"source" : [ "obj-61", 0 ],
									"destination" : [ "obj-58", 0 ],
									"hidden" : 0,
									"midpoints" : [  ]
								}

							}
, 							{
								"patchline" : 								{
									"source" : [ "obj-58", 0 ],
									"destination" : [ "obj-59", 0 ],
									"hidden" : 0,
									"midpoints" : [  ]
								}

							}
, 							{
								"patchline" : 								{
									"source" : [ "obj-58", 1 ],
									"destination" : [ "obj-59", 1 ],
									"hidden" : 0,
									"midpoints" : [  ]
								}

							}
, 							{
								"patchline" : 								{
									"source" : [ "obj-58", 2 ],
									"destination" : [ "obj-59", 2 ],
									"hidden" : 0,
									"midpoints" : [  ]
								}

							}
, 							{
								"patchline" : 								{
									"source" : [ "obj-58", 3 ],
									"destination" : [ "obj-59", 3 ],
									"hidden" : 0,
									"midpoints" : [  ]
								}

							}
, 							{
								"patchline" : 								{
									"source" : [ "obj-58", 4 ],
									"destination" : [ "obj-59", 4 ],
									"hidden" : 0,
									"midpoints" : [  ]
								}

							}
, 							{
								"patchline" : 								{
									"source" : [ "obj-58", 5 ],
									"destination" : [ "obj-59", 5 ],
									"hidden" : 0,
									"midpoints" : [  ]
								}

							}
, 							{
								"patchline" : 								{
									"source" : [ "obj-58", 6 ],
									"destination" : [ "obj-59", 6 ],
									"hidden" : 0,
									"midpoints" : [  ]
								}

							}
, 							{
								"patchline" : 								{
									"source" : [ "obj-58", 7 ],
									"destination" : [ "obj-59", 7 ],
									"hidden" : 0,
									"midpoints" : [  ]
								}

							}
 ]
					}
,
					"saved_object_attributes" : 					{
						"fontname" : "Arial",
						"default_fontface" : 0,
						"globalpatchername" : "",
						"fontface" : 0,
						"default_fontname" : "Arial",
						"fontsize" : 12.0,
						"default_fontsize" : 12.0
					}

				}

			}
, 			{
				"box" : 				{
					"maxclass" : "comment",
					"text" : "change this to the numbers you want to monitor",
					"linecount" : 3,
					"patching_rect" : [ 408.0, 295.0, 150.0, 48.0 ],
					"id" : "obj-61",
					"fontname" : "Arial",
					"numinlets" : 1,
					"numoutlets" : 0,
					"fontsize" : 12.0
				}

			}
, 			{
				"box" : 				{
					"maxclass" : "newobj",
					"text" : "midiinfo",
					"patching_rect" : [ 109.0, 158.0, 50.0, 20.0 ],
					"id" : "obj-3",
					"fontname" : "Arial",
					"numinlets" : 2,
					"numoutlets" : 1,
					"fontsize" : 11.595187,
					"outlettype" : [ "" ]
				}

			}
, 			{
				"box" : 				{
					"maxclass" : "umenu",
					"types" : [  ],
					"patching_rect" : [ 110.0, 182.0, 115.0, 20.0 ],
					"id" : "obj-4",
					"fontname" : "Arial",
					"presentation" : 1,
					"numinlets" : 1,
					"numoutlets" : 3,
					"fontsize" : 11.595187,
					"outlettype" : [ "int", "", "" ],
					"items" : "<empty>",
					"presentation_rect" : [ 15.0, 19.0, 115.0, 20.0 ]
				}

			}
, 			{
				"box" : 				{
					"maxclass" : "newobj",
					"text" : "loadmess 0",
					"patching_rect" : [ 109.0, 129.0, 70.0, 20.0 ],
					"id" : "obj-28",
					"fontname" : "Arial",
					"numinlets" : 1,
					"numoutlets" : 1,
					"fontsize" : 11.595187,
					"outlettype" : [ "" ]
				}

			}
, 			{
				"box" : 				{
					"maxclass" : "newobj",
					"text" : "midiin",
					"patching_rect" : [ 109.0, 223.0, 41.0, 20.0 ],
					"id" : "obj-31",
					"fontname" : "Arial",
					"numinlets" : 1,
					"numoutlets" : 1,
					"fontsize" : 11.595187,
					"outlettype" : [ "int" ]
				}

			}
, 			{
				"box" : 				{
					"maxclass" : "newobj",
					"text" : "midiparse",
					"patching_rect" : [ 109.0, 252.0, 464.0, 20.0 ],
					"id" : "obj-23",
					"fontname" : "Arial",
					"numinlets" : 1,
					"numoutlets" : 7,
					"fontsize" : 11.595187,
					"outlettype" : [ "", "", "", "int", "int", "int", "int" ]
				}

			}
, 			{
				"box" : 				{
					"maxclass" : "number",
					"patching_rect" : [ 906.0, 356.0, 50.0, 20.0 ],
					"id" : "obj-40",
					"fontname" : "Arial",
					"presentation" : 1,
					"numinlets" : 1,
					"numoutlets" : 2,
					"fontsize" : 11.595187,
					"outlettype" : [ "int", "bang" ],
					"presentation_rect" : [ 828.0, 38.0, 50.0, 20.0 ]
				}

			}
, 			{
				"box" : 				{
					"maxclass" : "button",
					"patching_rect" : [ 906.0, 385.0, 20.0, 20.0 ],
					"id" : "obj-41",
					"presentation" : 1,
					"numinlets" : 1,
					"numoutlets" : 1,
					"outlettype" : [ "bang" ],
					"presentation_rect" : [ 887.0, 38.0, 20.0, 20.0 ]
				}

			}
, 			{
				"box" : 				{
					"maxclass" : "comment",
					"text" : "MIDI Channel",
					"linecount" : 2,
					"presentation_linecount" : 2,
					"patching_rect" : [ 910.0, 410.0, 52.0, 33.0 ],
					"id" : "obj-52",
					"fontname" : "Arial",
					"presentation" : 1,
					"numinlets" : 1,
					"numoutlets" : 0,
					"fontsize" : 11.595187,
					"presentation_rect" : [ 832.0, 55.0, 52.0, 33.0 ]
				}

			}
 ],
		"lines" : [ 			{
				"patchline" : 				{
					"source" : [ "obj-62", 0 ],
					"destination" : [ "obj-13", 1 ],
					"hidden" : 0,
					"midpoints" : [  ]
				}

			}
, 			{
				"patchline" : 				{
					"source" : [ "obj-60", 0 ],
					"destination" : [ "obj-13", 1 ],
					"hidden" : 0,
					"midpoints" : [  ]
				}

			}
, 			{
				"patchline" : 				{
					"source" : [ "obj-63", 0 ],
					"destination" : [ "obj-13", 1 ],
					"hidden" : 0,
					"midpoints" : [  ]
				}

			}
, 			{
				"patchline" : 				{
					"source" : [ "obj-59", 0 ],
					"destination" : [ "obj-13", 1 ],
					"hidden" : 0,
					"midpoints" : [  ]
				}

			}
, 			{
				"patchline" : 				{
					"source" : [ "obj-64", 0 ],
					"destination" : [ "obj-13", 1 ],
					"hidden" : 0,
					"midpoints" : [  ]
				}

			}
, 			{
				"patchline" : 				{
					"source" : [ "obj-58", 0 ],
					"destination" : [ "obj-13", 1 ],
					"hidden" : 0,
					"midpoints" : [  ]
				}

			}
, 			{
				"patchline" : 				{
					"source" : [ "obj-65", 0 ],
					"destination" : [ "obj-13", 1 ],
					"hidden" : 0,
					"midpoints" : [  ]
				}

			}
, 			{
				"patchline" : 				{
					"source" : [ "obj-20", 0 ],
					"destination" : [ "obj-62", 0 ],
					"hidden" : 0,
					"midpoints" : [  ]
				}

			}
, 			{
				"patchline" : 				{
					"source" : [ "obj-21", 0 ],
					"destination" : [ "obj-60", 0 ],
					"hidden" : 0,
					"midpoints" : [  ]
				}

			}
, 			{
				"patchline" : 				{
					"source" : [ "obj-22", 0 ],
					"destination" : [ "obj-63", 0 ],
					"hidden" : 0,
					"midpoints" : [  ]
				}

			}
, 			{
				"patchline" : 				{
					"source" : [ "obj-24", 0 ],
					"destination" : [ "obj-59", 0 ],
					"hidden" : 0,
					"midpoints" : [  ]
				}

			}
, 			{
				"patchline" : 				{
					"source" : [ "obj-25", 0 ],
					"destination" : [ "obj-64", 0 ],
					"hidden" : 0,
					"midpoints" : [  ]
				}

			}
, 			{
				"patchline" : 				{
					"source" : [ "obj-26", 0 ],
					"destination" : [ "obj-58", 0 ],
					"hidden" : 0,
					"midpoints" : [  ]
				}

			}
, 			{
				"patchline" : 				{
					"source" : [ "obj-27", 0 ],
					"destination" : [ "obj-65", 0 ],
					"hidden" : 0,
					"midpoints" : [  ]
				}

			}
, 			{
				"patchline" : 				{
					"source" : [ "obj-13", 7 ],
					"destination" : [ "obj-56", 0 ],
					"hidden" : 0,
					"midpoints" : [  ]
				}

			}
, 			{
				"patchline" : 				{
					"source" : [ "obj-13", 6 ],
					"destination" : [ "obj-55", 0 ],
					"hidden" : 0,
					"midpoints" : [  ]
				}

			}
, 			{
				"patchline" : 				{
					"source" : [ "obj-13", 5 ],
					"destination" : [ "obj-54", 0 ],
					"hidden" : 0,
					"midpoints" : [  ]
				}

			}
, 			{
				"patchline" : 				{
					"source" : [ "obj-13", 4 ],
					"destination" : [ "obj-53", 0 ],
					"hidden" : 0,
					"midpoints" : [  ]
				}

			}
, 			{
				"patchline" : 				{
					"source" : [ "obj-13", 3 ],
					"destination" : [ "obj-51", 0 ],
					"hidden" : 0,
					"midpoints" : [  ]
				}

			}
, 			{
				"patchline" : 				{
					"source" : [ "obj-13", 2 ],
					"destination" : [ "obj-50", 0 ],
					"hidden" : 0,
					"midpoints" : [  ]
				}

			}
, 			{
				"patchline" : 				{
					"source" : [ "obj-13", 1 ],
					"destination" : [ "obj-49", 0 ],
					"hidden" : 0,
					"midpoints" : [  ]
				}

			}
, 			{
				"patchline" : 				{
					"source" : [ "obj-13", 0 ],
					"destination" : [ "obj-48", 0 ],
					"hidden" : 0,
					"midpoints" : [  ]
				}

			}
, 			{
				"patchline" : 				{
					"source" : [ "obj-17", 0 ],
					"destination" : [ "obj-13", 1 ],
					"hidden" : 0,
					"midpoints" : [  ]
				}

			}
, 			{
				"patchline" : 				{
					"source" : [ "obj-29", 0 ],
					"destination" : [ "obj-17", 0 ],
					"hidden" : 0,
					"midpoints" : [  ]
				}

			}
, 			{
				"patchline" : 				{
					"source" : [ "obj-31", 0 ],
					"destination" : [ "obj-23", 0 ],
					"hidden" : 0,
					"midpoints" : [  ]
				}

			}
, 			{
				"patchline" : 				{
					"source" : [ "obj-3", 0 ],
					"destination" : [ "obj-4", 0 ],
					"hidden" : 0,
					"midpoints" : [  ]
				}

			}
, 			{
				"patchline" : 				{
					"source" : [ "obj-4", 1 ],
					"destination" : [ "obj-31", 0 ],
					"hidden" : 0,
					"midpoints" : [ 167.5, 209.0, 118.5, 209.0 ]
				}

			}
, 			{
				"patchline" : 				{
					"source" : [ "obj-28", 0 ],
					"destination" : [ "obj-3", 1 ],
					"hidden" : 0,
					"midpoints" : [ 118.5, 153.0, 149.5, 153.0 ]
				}

			}
, 			{
				"patchline" : 				{
					"source" : [ "obj-23", 6 ],
					"destination" : [ "obj-40", 0 ],
					"hidden" : 0,
					"midpoints" : [  ]
				}

			}
, 			{
				"patchline" : 				{
					"source" : [ "obj-40", 0 ],
					"destination" : [ "obj-41", 0 ],
					"hidden" : 0,
					"midpoints" : [  ]
				}

			}
, 			{
				"patchline" : 				{
					"source" : [ "obj-23", 2 ],
					"destination" : [ "obj-43", 1 ],
					"hidden" : 0,
					"midpoints" : [  ]
				}

			}
, 			{
				"patchline" : 				{
					"source" : [ "obj-23", 2 ],
					"destination" : [ "obj-13", 0 ],
					"hidden" : 0,
					"midpoints" : [  ]
				}

			}
 ]
	}

}
